<svg width="85" height="85" viewBox="0 0 85 85" fill="none" xmlns="http://www.w3.org/2000/svg">
<ellipse cx="42.2463" cy="42.5" rx="42.2463" ry="42.5" fill="#00B074" fill-opacity="0.15"/>
<path d="M18.692 64.2747C21.8657 64.2747 24.4589 61.6627 24.4589 58.466V21.041H58.1311V58.466C58.1311 61.6627 55.538 64.2747 52.3643 64.2747" fill="#00B074"/>
<path d="M46.5975 58.4659V54.0607H12.9253V58.4659C12.9253 61.6626 15.5184 64.2746 18.6922 64.2746H52.3644C49.1907 64.2746 46.5975 61.6626 46.5975 58.4659Z" fill="#0A5239"/>
<path d="M34.793 28.4868H30.4969V30.3581H34.793V28.4868Z" fill="#F7C604"/>
<path d="M51.3193 28.4868H38.1213V30.3581H51.3193V28.4868Z" fill="#F3F2F7"/>
<path d="M34.793 35.1142H30.4969V36.9854H34.793V35.1142Z" fill="#F7C604"/>
<path d="M51.3193 35.1142H38.1213V36.9854H51.3193V35.1142Z" fill="#F3F2F7"/>
<path d="M34.793 41.7417H30.4969V43.6129H34.793V41.7417Z" fill="#F7C604"/>
<path d="M51.3193 41.7417H38.1213V43.6129H51.3193V41.7417Z" fill="#F3F2F7"/>
<path d="M34.793 48.369H30.4969V50.2403H34.793V48.369Z" fill="#F7C604"/>
<path d="M51.3193 48.369H38.1213V50.2403H51.3193V48.369Z" fill="#F3F2F7"/>
<path opacity="0.1" d="M58.1311 48.681V26.4209C57.6667 26.3429 57.1635 26.304 56.6603 26.304C50.5065 26.304 45.5137 31.3329 45.5137 37.5315C45.5137 43.73 50.5065 48.7589 56.6603 48.7589C57.1635 48.7979 57.6667 48.759 58.1311 48.681Z" fill="#0C1E5B"/>
<path d="M60.5704 46.5371C66.7266 46.5371 71.7172 41.5103 71.7172 35.3094C71.7172 29.1086 66.7266 24.0818 60.5704 24.0818C54.4142 24.0818 49.4236 29.1086 49.4236 35.3094C49.4236 41.5103 54.4142 46.5371 60.5704 46.5371Z" fill="#FF5B5B"/>
<path d="M64.9461 30.7308L55.8469 39.8846M55.8469 30.7308L64.9461 39.8846" stroke="white" stroke-width="4"/>
<path d="M64.9461 30.7308L55.8469 39.8846M55.8469 30.7308L64.9461 39.8846" stroke="white" stroke-width="4"/>
</svg>
