<svg width="20" height="20" viewBox="0 0 20 20" fill="none" xmlns="http://www.w3.org/2000/svg">
<path d="M10.0001 9.99983C10.4603 9.99983 10.8334 9.62673 10.8334 9.16649C10.8334 8.70626 10.4603 8.33316 10.0001 8.33316C9.53984 8.33316 9.16675 8.70626 9.16675 9.16649C9.16675 9.62673 9.53984 9.99983 10.0001 9.99983Z" fill="#464255"/>
<path d="M6.66659 9.99983C7.12682 9.99983 7.49992 9.62673 7.49992 9.16649C7.49992 8.70626 7.12682 8.33316 6.66659 8.33316C6.20635 8.33316 5.83325 8.70626 5.83325 9.16649C5.83325 9.62673 6.20635 9.99983 6.66659 9.99983Z" fill="#464255"/>
<path d="M13.3333 9.99983C13.7936 9.99983 14.1667 9.62673 14.1667 9.16649C14.1667 8.70626 13.7936 8.33316 13.3333 8.33316C12.8731 8.33316 12.5 8.70626 12.5 9.16649C12.5 9.62673 12.8731 9.99983 13.3333 9.99983Z" fill="#464255"/>
<path d="M2.54157 18.225C2.71598 18.297 2.90289 18.3338 3.09157 18.3333C3.27764 18.3343 3.46201 18.2979 3.63377 18.2263C3.80554 18.1547 3.9612 18.0494 4.09157 17.9167L6.1749 15.8333H14.1666C15.2716 15.8333 16.3314 15.3943 17.1128 14.6129C17.8942 13.8315 18.3332 12.7717 18.3332 11.6667V6.66667C18.3332 5.5616 17.8942 4.50179 17.1128 3.72039C16.3314 2.93899 15.2716 2.5 14.1666 2.5H5.83323C4.72816 2.5 3.66836 2.93899 2.88695 3.72039C2.10555 4.50179 1.66657 5.5616 1.66657 6.66667V16.9083C1.66392 17.1902 1.7459 17.4663 1.90189 17.701C2.05788 17.9358 2.28072 18.1183 2.54157 18.225ZM3.33323 6.66667C3.33323 6.00363 3.59662 5.36774 4.06547 4.8989C4.53431 4.43006 5.17019 4.16667 5.83323 4.16667H14.1666C14.8296 4.16667 15.4655 4.43006 15.9343 4.8989C16.4032 5.36774 16.6666 6.00363 16.6666 6.66667V11.6667C16.6666 12.3297 16.4032 12.9656 15.9343 13.4344C15.4655 13.9033 14.8296 14.1667 14.1666 14.1667H5.83323C5.72356 14.166 5.61484 14.1871 5.51331 14.2285C5.41178 14.27 5.31943 14.3311 5.24157 14.4083L3.33323 16.325V6.66667Z" fill="#464255"/>
</svg>
