<svg width="20" height="20" viewBox="0 0 20 20" fill="none" xmlns="http://www.w3.org/2000/svg">
<path d="M12.9753 9.72482C13.6884 9.11638 14.1978 8.30395 14.4347 7.39704C14.6717 6.49013 14.625 5.53237 14.3007 4.65287C13.9765 3.77336 13.3904 3.01442 12.6215 2.47836C11.8525 1.9423 10.9377 1.65489 10.0003 1.65489C9.06297 1.65489 8.14814 1.9423 7.37919 2.47836C6.61024 3.01442 6.02414 3.77336 5.69991 4.65287C5.37568 5.53237 5.32891 6.49013 5.5659 7.39704C5.8029 8.30395 6.31227 9.11638 7.02533 9.72482C5.45055 10.3267 4.09535 11.392 3.13867 12.7801C2.182 14.1683 1.66885 15.814 1.66699 17.4998C1.66699 17.7208 1.75479 17.9328 1.91107 18.0891C2.06735 18.2454 2.27931 18.3332 2.50033 18.3332C2.72134 18.3332 2.9333 18.2454 3.08958 18.0891C3.24586 17.9328 3.33366 17.7208 3.33366 17.4998C3.33366 15.7317 4.03604 14.036 5.28628 12.7858C6.53652 11.5355 8.23222 10.8332 10.0003 10.8332C11.7684 10.8332 13.4641 11.5355 14.7144 12.7858C15.9646 14.036 16.667 15.7317 16.667 17.4998C16.667 17.7208 16.7548 17.9328 16.9111 18.0891C17.0674 18.2454 17.2793 18.3332 17.5003 18.3332C17.7213 18.3332 17.9333 18.2454 18.0896 18.0891C18.2459 17.9328 18.3337 17.7208 18.3337 17.4998C18.3318 15.814 17.8187 14.1683 16.862 12.7801C15.9053 11.392 14.5501 10.3267 12.9753 9.72482ZM10.0003 9.16648C9.42346 9.16648 8.85956 8.99542 8.37991 8.67494C7.90027 8.35445 7.52643 7.89893 7.30568 7.36598C7.08492 6.83303 7.02716 6.24658 7.1397 5.6808C7.25224 5.11503 7.53003 4.59533 7.93793 4.18742C8.34584 3.77952 8.86554 3.50173 9.43131 3.38919C9.99709 3.27665 10.5835 3.33441 11.1165 3.55517C11.6494 3.77592 12.105 4.14976 12.4254 4.6294C12.7459 5.10905 12.917 5.67296 12.917 6.24982C12.917 7.02337 12.6097 7.76523 12.0627 8.31221C11.5157 8.85919 10.7739 9.16648 10.0003 9.16648Z" fill="white"/>
</svg>
