<svg width="20" height="20" viewBox="0 0 20 20" fill="none" xmlns="http://www.w3.org/2000/svg">
<path d="M15.9916 13.925C16.4243 13.4085 16.6631 12.7571 16.6666 12.0833C16.6666 11.3098 16.3593 10.5679 15.8124 10.0209C15.2654 9.47393 14.5235 9.16664 13.75 9.16664H13.5166C14.2039 8.34996 14.5815 7.31733 14.5833 6.24997C14.5852 5.48043 14.3934 4.72278 14.0254 4.04691C13.6575 3.37103 13.1253 2.79868 12.4779 2.38263C11.8305 1.96659 11.0888 1.72025 10.3211 1.66633C9.55347 1.6124 8.7846 1.75264 8.08541 2.0741C7.38622 2.39555 6.77922 2.88789 6.3204 3.50569C5.86158 4.12349 5.56569 4.84688 5.46004 5.60914C5.35439 6.3714 5.44237 7.14799 5.71586 7.86729C5.98935 8.5866 6.43956 9.22546 7.02496 9.72497C5.45018 10.3268 4.09498 11.3922 3.13831 12.7803C2.18164 14.1684 1.66849 15.8141 1.66663 17.5C1.66663 17.721 1.75442 17.9329 1.9107 18.0892C2.06698 18.2455 2.27895 18.3333 2.49996 18.3333C2.72097 18.3333 2.93293 18.2455 3.08922 18.0892C3.2455 17.9329 3.33329 17.721 3.33329 17.5C3.33329 15.7319 4.03567 14.0362 5.28591 12.7859C6.53616 11.5357 8.23185 10.8333 9.99996 10.8333H11.125C10.8809 11.33 10.7871 11.8871 10.8552 12.4363C10.9233 12.9856 11.1503 13.5029 11.5083 13.925C10.7984 14.3221 10.2071 14.9013 9.79553 15.6029C9.38393 16.3045 9.16684 17.1032 9.16663 17.9166C9.16663 18.1376 9.25442 18.3496 9.4107 18.5059C9.56698 18.6622 9.77895 18.75 9.99996 18.75C10.221 18.75 10.4329 18.6622 10.5892 18.5059C10.7455 18.3496 10.8333 18.1376 10.8333 17.9166C10.8333 17.1431 11.1406 16.4012 11.6876 15.8542C12.2345 15.3073 12.9764 15 13.75 15C14.5235 15 15.2654 15.3073 15.8124 15.8542C16.3593 16.4012 16.6666 17.1431 16.6666 17.9166C16.6666 18.1376 16.7544 18.3496 16.9107 18.5059C17.067 18.6622 17.2789 18.75 17.5 18.75C17.721 18.75 17.9329 18.6622 18.0892 18.5059C18.2455 18.3496 18.3333 18.1376 18.3333 17.9166C18.3331 17.1032 18.116 16.3045 17.7044 15.6029C17.2928 14.9013 16.7016 14.3221 15.9916 13.925ZM9.99996 9.16664C9.4231 9.16664 8.85919 8.99558 8.37955 8.67509C7.8999 8.3546 7.52607 7.89908 7.30531 7.36613C7.08456 6.83318 7.0268 6.24674 7.13934 5.68096C7.25188 5.11518 7.52966 4.59548 7.93756 4.18758C8.34547 3.77968 8.86517 3.50189 9.43095 3.38935C9.99672 3.27681 10.5832 3.33457 11.1161 3.55532C11.6491 3.77608 12.1046 4.14992 12.4251 4.62956C12.7456 5.1092 12.9166 5.67311 12.9166 6.24997C12.9166 7.02352 12.6093 7.76539 12.0624 8.31237C11.5154 8.85935 10.7735 9.16664 9.99996 9.16664ZM13.75 13.3333C13.4184 13.3333 13.1005 13.2016 12.8661 12.9672C12.6317 12.7328 12.5 12.4148 12.5 12.0833C12.5021 11.7525 12.6345 11.4358 12.8685 11.2018C13.1024 10.9679 13.4191 10.8355 13.75 10.8333C14.0815 10.8333 14.3994 10.965 14.6338 11.1994C14.8683 11.4338 15 11.7518 15 12.0833C15 12.4148 14.8683 12.7328 14.6338 12.9672C14.3994 13.2016 14.0815 13.3333 13.75 13.3333Z" fill="#464255"/>
</svg>
