<svg width="17" height="17" viewBox="0 0 17 17" fill="none" xmlns="http://www.w3.org/2000/svg">
<rect x="16.1797" y="17" width="16.0345" height="16.1308" rx="8.01726" transform="rotate(-180 16.1797 17)" fill="#FF5B5B" fill-opacity="0.15"/>
<g clip-path="url(#clip0_544_3740)">
<path d="M6.17835 9.74445L7.82897 11.405C7.9174 11.4939 8.03734 11.5439 8.16239 11.5439C8.28744 11.5439 8.40737 11.4939 8.49581 11.405L10.1464 9.74445C10.2323 9.65497 10.2799 9.53513 10.2788 9.41074C10.2777 9.28634 10.2281 9.16735 10.1407 9.07938C10.0532 8.99142 9.93496 8.94152 9.8113 8.94044C9.68765 8.93936 9.56852 8.98718 9.47958 9.0736L8.63399 9.92426L8.63399 6.79964C8.63399 6.67381 8.58431 6.55313 8.49586 6.46416C8.40742 6.37519 8.28747 6.3252 8.16239 6.3252C8.03731 6.3252 7.91736 6.37519 7.82892 6.46416C7.74047 6.55313 7.69079 6.67381 7.69079 6.79964L7.69079 9.92426L6.8452 9.0736C6.75626 8.98718 6.63713 8.93936 6.51347 8.94044C6.38982 8.94152 6.27154 8.99142 6.1841 9.07938C6.09666 9.16735 6.04706 9.28634 6.04599 9.41073C6.04491 9.53513 6.09245 9.65497 6.17835 9.74445Z" fill="#FF5B5B"/>
</g>
<defs>
<clipPath id="clip0_544_3740">
<rect width="5.65924" height="5.69322" fill="white" transform="translate(10.9921 11.7812) rotate(-180)"/>
</clipPath>
</defs>
</svg>
