<svg width="24" height="24" viewBox="0 0 24 24" fill="none" xmlns="http://www.w3.org/2000/svg">
<path d="M20.4852 3.515C25.1718 8.20167 25.1718 15.799 20.4852 20.4857C15.7985 25.1723 8.20118 25.1723 3.51451 20.4857C-1.17216 15.799 -1.17216 8.20167 3.51451 3.515C8.20118 -1.17167 15.7985 -1.17167 20.4852 3.515ZM10.0552 16.7737L7.22718 13.9457L5.98918 18.0117L10.0552 16.7737ZM16.5958 10.2337L13.7678 7.405L7.75718 13.415L10.5858 16.2437L16.5958 10.233V10.2337ZM19.0712 7.051L16.9498 4.92967C16.7765 4.75633 16.5065 4.737 16.3118 4.87233L16.2425 4.92967L14.4745 6.69767L17.3032 9.52633L19.0712 7.75833C19.2445 7.585 19.2638 7.31567 19.1285 7.12033L19.0712 7.051Z" fill="#1034A6"/>
</svg>
