<svg width="20" height="20" viewBox="0 0 20 20" fill="none" xmlns="http://www.w3.org/2000/svg">
<path d="M9.99992 11.6667C10.9204 11.6667 11.6666 10.9205 11.6666 10C11.6666 9.07953 10.9204 8.33333 9.99992 8.33333C9.07944 8.33333 8.33325 9.07953 8.33325 10C8.33325 10.9205 9.07944 11.6667 9.99992 11.6667Z" stroke="#464255" stroke-width="1.5"/>
<path d="M4.49912 4.9L4.81162 4.35833C4.68892 4.28755 4.54583 4.26055 4.40578 4.28175C4.26573 4.30294 4.13704 4.37108 4.04078 4.475L4.49912 4.9ZM2.83328 7.78667L2.23578 7.60167C2.19399 7.73704 2.19942 7.8826 2.25121 8.01448C2.30299 8.14636 2.39804 8.25673 2.52078 8.3275L2.83328 7.78667ZM2.83162 12.2125L2.51912 11.6708C2.39635 11.7418 2.30135 11.8523 2.24971 11.9844C2.19807 12.1164 2.19287 12.2621 2.23495 12.3975L2.83162 12.2125ZM4.49828 15.0992L4.03995 15.5242C4.1362 15.6281 4.2649 15.6962 4.40495 15.7174C4.545 15.7386 4.68809 15.7116 4.81078 15.6408L4.49828 15.0992ZM8.33162 17.3117H7.70662C7.70662 17.6033 7.90912 17.8558 8.19328 17.9208L8.33162 17.3117ZM11.6658 17.3133L11.8049 17.9233C11.9431 17.8918 12.0664 17.8142 12.1547 17.7034C12.2429 17.5926 12.2909 17.455 12.2908 17.3133H11.6658ZM15.4999 15.1L15.1874 15.6417C15.3101 15.7124 15.4532 15.7394 15.5933 15.7183C15.7333 15.6971 15.862 15.6289 15.9583 15.525L15.4999 15.1ZM17.1649 12.2117L17.7625 12.3967C17.8042 12.2613 17.7988 12.1157 17.747 11.9839C17.6952 11.852 17.6002 11.7416 17.4774 11.6708L17.1649 12.2117ZM17.1666 7.78583L17.4791 8.3275C17.6019 8.25657 17.6969 8.146 17.7485 8.01396C17.8002 7.88191 17.8054 7.73623 17.7633 7.60083L17.1666 7.78583ZM15.4999 4.89833L15.9583 4.47417C15.862 4.37025 15.7333 4.30211 15.5933 4.28091C15.4532 4.25972 15.3101 4.28672 15.1874 4.3575L15.4999 4.89833ZM11.6666 2.6875H12.2916C12.2916 2.54595 12.2435 2.40861 12.1552 2.29794C12.067 2.18728 11.9438 2.10985 11.8058 2.07833L11.6666 2.6875ZM8.33328 2.68583L8.19412 2.07583C8.05598 2.10738 7.93267 2.18493 7.84439 2.29577C7.75612 2.4066 7.70813 2.54414 7.70828 2.68583H8.33328ZM3.43078 7.97167C3.73409 6.98576 4.25561 6.08086 4.95662 5.32417L4.03995 4.47417C3.21157 5.36831 2.59521 6.43754 2.23662 7.6025L3.43078 7.97167ZM4.04578 13.4375C3.7884 12.9925 3.58156 12.5201 3.42912 12.0292L2.23578 12.3983C2.41552 12.9784 2.65954 13.5366 2.96328 14.0625L4.04578 13.4375ZM4.95745 14.6758C4.60837 14.2983 4.30258 13.883 4.04578 13.4375L2.96328 14.0625C3.26657 14.5886 3.6277 15.0783 4.03995 15.5242L4.95745 14.6758ZM11.5274 16.705C10.5219 16.9339 9.47774 16.9333 8.47245 16.7033L8.19412 17.9217C9.38254 18.1937 10.617 18.1946 11.8058 17.9242L11.5274 16.705ZM16.5691 12.0283C16.2658 13.0142 15.7443 13.9191 15.0433 14.6758L15.9599 15.5258C16.7883 14.6317 17.4047 13.5625 17.7633 12.3975L16.5691 12.0283ZM15.9541 6.5625C16.2166 7.01833 16.4208 7.49 16.5708 7.97083L17.7641 7.60167C17.5844 7.02157 17.3404 6.46338 17.0366 5.9375L15.9541 6.5625ZM15.0416 5.32417C15.3833 5.69333 15.6899 6.1075 15.9533 6.5625L17.0366 5.9375C16.7331 5.41136 16.3708 4.91998 15.9583 4.47417L15.0416 5.32417ZM8.47162 3.295C9.47716 3.06614 10.5213 3.06671 11.5266 3.29667L11.8058 2.07833C10.6174 1.80626 9.38208 1.80541 8.19328 2.07583L8.47162 3.295ZM8.95745 4.22667V2.685H7.70745V4.22667H8.95745ZM6.14578 5.12833L4.81162 4.35833L4.18662 5.44083L5.51995 6.21083L6.14578 5.12833ZM3.85412 10.9025L2.51995 11.6725L3.14495 12.755L4.47912 11.985L3.85412 10.9025ZM4.47912 8.015L3.14578 7.24583L2.52078 8.32917L3.85412 9.09833L4.47912 8.015ZM8.95828 17.3125V15.7733H7.70828V17.3125H8.95828ZM5.52078 13.7892L4.18662 14.5592L4.81162 15.6425L6.14495 14.8717L5.52078 13.7892ZM15.8133 14.5592L14.4791 13.7892L13.8541 14.8717L15.1874 15.6417L15.8133 14.5592ZM12.2916 17.3142V15.7733H11.0416V17.315L12.2916 17.3142ZM16.8549 7.245L15.5208 8.015L16.1458 9.09833L17.4791 8.3275L16.8549 7.245ZM17.4783 11.6717L16.1458 10.9017L15.5208 11.985L16.8541 12.7542L17.4783 11.6717ZM12.2916 4.22667V2.6875H11.0416V4.22667H12.2916ZM15.1883 4.35833L13.8541 5.12833L14.4791 6.21167L15.8133 5.44083L15.1883 4.35833ZM11.0416 4.22667C11.0416 5.99083 12.9516 7.09417 14.4791 6.21167L13.8541 5.12833C13.6958 5.21974 13.5162 5.26787 13.3334 5.26789C13.1506 5.26791 12.971 5.21982 12.8126 5.12844C12.6543 5.03707 12.5228 4.90564 12.4313 4.74734C12.3399 4.58905 12.2917 4.40948 12.2916 4.22667H11.0416ZM15.5208 8.015C13.9933 8.8975 13.9933 11.1025 15.5208 11.985L16.1458 10.9017C15.9874 10.8102 15.856 10.6787 15.7645 10.5204C15.6731 10.362 15.625 10.1824 15.625 9.99958C15.625 9.81674 15.6731 9.63712 15.7645 9.47877C15.856 9.32043 15.9874 9.18893 16.1458 9.0975L15.5208 8.015ZM14.4791 13.7892C12.9516 12.9067 11.0416 14.0092 11.0416 15.7733H12.2916C12.2917 15.5905 12.3399 15.4109 12.4313 15.2527C12.5228 15.0944 12.6543 14.9629 12.8126 14.8716C12.971 14.7802 13.1506 14.7321 13.3334 14.7321C13.5162 14.7321 13.6958 14.7803 13.8541 14.8717L14.4791 13.7892ZM8.95828 15.7733C8.95828 14.0092 7.04828 12.9067 5.52078 13.7892L6.14495 14.8717C6.30327 14.7803 6.48369 14.7321 6.66651 14.7321C6.84932 14.7321 7.02892 14.7802 7.18726 14.8716C7.3456 14.9629 7.4771 15.0944 7.56856 15.2527C7.66002 15.4109 7.70821 15.5905 7.70828 15.7733H8.95828ZM4.47912 11.985C6.00662 11.1025 6.00662 8.8975 4.47912 8.015L3.85412 9.09833C4.01246 9.18976 4.14394 9.32126 4.23536 9.47961C4.32678 9.63795 4.3749 9.81757 4.3749 10.0004C4.3749 10.1833 4.32678 10.3629 4.23536 10.5212C4.14394 10.6796 4.01246 10.8111 3.85412 10.9025L4.47912 11.985ZM7.70828 4.22667C7.70821 4.40948 7.66002 4.58905 7.56856 4.74734C7.4771 4.90564 7.3456 5.03707 7.18726 5.12844C7.02892 5.21982 6.84932 5.26791 6.66651 5.26789C6.48369 5.26787 6.3041 5.21974 6.14578 5.12833L5.52078 6.21167C7.04828 7.09333 8.95828 5.99083 8.95828 4.22667H7.70828Z" fill="#464255"/>
</svg>
