<svg width="20" height="20" viewBox="0 0 20 20" fill="none" xmlns="http://www.w3.org/2000/svg">
<path d="M10.0961 19.1C15.1112 19.1 19.1764 15.0256 19.1764 10C19.1764 4.97441 15.1112 0.9 10.0961 0.9C5.08093 0.9 1.01572 4.97441 1.01572 10C1.01572 15.0256 5.08093 19.1 10.0961 19.1Z" stroke="#5C5C5C" stroke-width="0.2"/>
<path d="M10.096 10.7929L7.83262 8.14645C7.66562 7.95118 7.39485 7.95118 7.22785 8.14645C7.06085 8.34171 7.06085 8.65829 7.22785 8.85355L9.79367 11.8536C9.96067 12.0488 10.2314 12.0488 10.3984 11.8536L12.9642 8.85355C13.1312 8.65829 13.1312 8.34171 12.9642 8.14645C12.7972 7.95118 12.5265 7.95118 12.3595 8.14645L10.096 10.7929Z" fill="#565656"/>
<mask id="mask0_551_4575" style="mask-type:luminance" maskUnits="userSpaceOnUse" x="7" y="8" width="7" height="4">
<path d="M10.096 10.7929L7.83262 8.14645C7.66562 7.95118 7.39485 7.95118 7.22785 8.14645C7.06085 8.34171 7.06085 8.65829 7.22785 8.85355L9.79367 11.8536C9.96067 12.0488 10.2314 12.0488 10.3984 11.8536L12.9642 8.85355C13.1312 8.65829 13.1312 8.34171 12.9642 8.14645C12.7972 7.95118 12.5265 7.95118 12.3595 8.14645L10.096 10.7929Z" fill="white"/>
</mask>
<g mask="url(#mask0_551_4575)">
</g>
</svg>
