<svg width="30" height="31" viewBox="0 0 30 31" fill="none" xmlns="http://www.w3.org/2000/svg">
<path fill-rule="evenodd" clip-rule="evenodd" d="M10.7972 5C8.50378 5 6.57728 6.72472 6.32457 9.00413L5.27177 18.5H2.28162C1.45319 18.5 0.781616 19.1716 0.781616 20V21.5C0.781616 22.3284 1.45319 23 2.28162 23H23.2292C24.0576 23 24.7292 22.3284 24.7292 21.5V20C24.7292 19.1716 24.0576 18.5 23.2292 18.5H20.239L19.1862 9.00413C18.9335 6.72471 17.007 5 14.7136 5H10.7972Z" fill="#4880FF"/>
<rect opacity="0.3" x="9.76196" y="24.5" width="5.9869" height="6" rx="2.25" fill="#FF0000"/>
<path fill-rule="evenodd" clip-rule="evenodd" d="M21.7358 16C26.1444 16 29.7183 12.4183 29.7183 8C29.7183 3.58172 26.1444 0 21.7358 0C17.3271 0 13.7532 3.58172 13.7532 8C13.7532 12.4183 17.3271 16 21.7358 16Z" fill="#F93C65"/>
<path d="M21.6565 12.12C20.6085 12.12 19.7965 11.752 19.2205 11.016C18.6525 10.28 18.3685 9.248 18.3685 7.92C18.3685 6.488 18.6885 5.38 19.3285 4.596C19.9765 3.812 20.8685 3.42 22.0045 3.42C22.4525 3.42 22.8965 3.504 23.3365 3.672C23.7765 3.832 24.1525 4.064 24.4645 4.368L23.9605 5.52C23.6645 5.248 23.3485 5.048 23.0125 4.92C22.6765 4.784 22.3325 4.716 21.9805 4.716C21.2845 4.716 20.7525 4.96 20.3845 5.448C20.0165 5.936 19.8325 6.664 19.8325 7.632V7.98C20.0005 7.54 20.2725 7.196 20.6485 6.948C21.0245 6.7 21.4565 6.576 21.9445 6.576C22.4325 6.576 22.8645 6.692 23.2405 6.924C23.6165 7.156 23.9125 7.476 24.1285 7.884C24.3445 8.292 24.4525 8.76 24.4525 9.288C24.4525 9.832 24.3325 10.32 24.0925 10.752C23.8605 11.176 23.5325 11.512 23.1085 11.76C22.6925 12 22.2085 12.12 21.6565 12.12ZM21.5725 10.896C22.0045 10.896 22.3525 10.756 22.6165 10.476C22.8885 10.188 23.0245 9.812 23.0245 9.348C23.0245 8.884 22.8885 8.508 22.6165 8.22C22.3525 7.932 22.0045 7.788 21.5725 7.788C21.1405 7.788 20.7885 7.932 20.5165 8.22C20.2525 8.508 20.1205 8.884 20.1205 9.348C20.1205 9.812 20.2525 10.188 20.5165 10.476C20.7885 10.756 21.1405 10.896 21.5725 10.896Z" fill="white"/>
</svg>
