<svg width="85" height="85" viewBox="0 0 85 85" fill="none" xmlns="http://www.w3.org/2000/svg">
<ellipse cx="42.0758" cy="42.5" rx="42.0758" ry="42.5" fill="#00B074" fill-opacity="0.15"/>
<path d="M18.6166 64.2747C21.7775 64.2747 24.3601 61.6627 24.3601 58.466V21.041H57.8965V58.466C57.8965 61.6627 55.3138 64.2747 52.1529 64.2747" fill="#00B074"/>
<path d="M46.4093 58.4659V54.0607H12.873V58.4659C12.873 61.6626 15.4557 64.2746 18.6166 64.2746H52.1529C48.992 64.2746 46.4093 61.6626 46.4093 58.4659Z" fill="#0A5239"/>
<path d="M34.6524 28.4868H30.3737V30.3581H34.6524V28.4868Z" fill="white"/>
<path d="M51.1121 28.4868H37.9674V30.3581H51.1121V28.4868Z" fill="#F7C604"/>
<path d="M34.6524 35.1142H30.3737V36.9854H34.6524V35.1142Z" fill="white"/>
<path d="M51.1121 35.1142H37.9674V36.9854H51.1121V35.1142Z" fill="#F7C604"/>
<path d="M34.6524 41.7417H30.3737V43.6129H34.6524V41.7417Z" fill="white"/>
<path d="M51.1121 41.7417H37.9674V43.6129H51.1121V41.7417Z" fill="#F7C604"/>
<path d="M34.6524 48.369H30.3737V50.2403H34.6524V48.369Z" fill="white"/>
<path d="M51.1121 48.369H37.9674V50.2403H51.1121V48.369Z" fill="#F7C604"/>
<path opacity="0.1" d="M57.8964 48.681V26.4209C57.4339 26.3429 56.9327 26.304 56.4316 26.304C50.3026 26.304 45.33 31.3329 45.33 37.5315C45.33 43.73 50.3026 48.7589 56.4316 48.7589C56.9327 48.7979 57.4339 48.759 57.8964 48.681Z" fill="#0C1E5B"/>
<path d="M60.3258 46.5371C66.4571 46.5371 71.4276 41.5103 71.4276 35.3094C71.4276 29.1086 66.4571 24.0818 60.3258 24.0818C54.1944 24.0818 49.224 29.1086 49.224 35.3094C49.224 41.5103 54.1944 46.5371 60.3258 46.5371Z" fill="#FF5B5B"/>
<path d="M62.2911 36.0889V29.1107H58.3593V36.0889H55.738L60.3252 41.5077L64.9123 36.0889H62.2911Z" fill="white"/>
</svg>
