<svg width="20" height="20" viewBox="0 0 20 20" fill="none" xmlns="http://www.w3.org/2000/svg">
<path d="M17.5002 4.16667H2.5002C2.02798 4.16667 1.66687 3.80555 1.66687 3.33333C1.66687 2.86111 2.02798 2.5 2.5002 2.5H17.5002C17.9724 2.5 18.3335 2.86111 18.3335 3.33333C18.3335 3.80555 17.9724 4.16667 17.5002 4.16667Z" fill="#464255"/>
<path d="M12.5002 8.61109H2.5002C2.02798 8.61109 1.66687 8.24998 1.66687 7.77776C1.66687 7.30554 2.02798 6.94443 2.5002 6.94443H12.5002C12.9724 6.94443 13.3335 7.30554 13.3335 7.77776C13.3335 8.24998 12.9724 8.61109 12.5002 8.61109Z" fill="#464255"/>
<path d="M17.5002 13.0555H2.5002C2.02798 13.0555 1.66687 12.6944 1.66687 12.2222C1.66687 11.75 2.02798 11.3889 2.5002 11.3889H17.5002C17.9724 11.3889 18.3335 11.75 18.3335 12.2222C18.3335 12.6944 17.9724 13.0555 17.5002 13.0555Z" fill="#464255"/>
<path d="M12.5002 17.5H2.5002C2.02798 17.5 1.66687 17.1388 1.66687 16.6666C1.66687 16.1944 2.02798 15.8333 2.5002 15.8333H12.5002C12.9724 15.8333 13.3335 16.1944 13.3335 16.6666C13.3335 17.1388 12.9724 17.5 12.5002 17.5Z" fill="#464255"/>
</svg>
