<svg width="20" height="20" viewBox="0 0 20 20" fill="none" xmlns="http://www.w3.org/2000/svg">
<path d="M17.5003 4.16667H2.50033C2.0281 4.16667 1.66699 3.80555 1.66699 3.33333C1.66699 2.86111 2.0281 2.5 2.50033 2.5H17.5003C17.9725 2.5 18.3337 2.86111 18.3337 3.33333C18.3337 3.80555 17.9725 4.16667 17.5003 4.16667Z" fill="white"/>
<path d="M12.5003 8.61109H2.50033C2.0281 8.61109 1.66699 8.24998 1.66699 7.77776C1.66699 7.30554 2.0281 6.94443 2.50033 6.94443H12.5003C12.9725 6.94443 13.3337 7.30554 13.3337 7.77776C13.3337 8.24998 12.9725 8.61109 12.5003 8.61109Z" fill="white"/>
<path d="M17.5003 13.0555H2.50033C2.0281 13.0555 1.66699 12.6944 1.66699 12.2222C1.66699 11.75 2.0281 11.3889 2.50033 11.3889H17.5003C17.9725 11.3889 18.3337 11.75 18.3337 12.2222C18.3337 12.6944 17.9725 13.0555 17.5003 13.0555Z" fill="white"/>
<path d="M12.5003 17.5H2.50033C2.0281 17.5 1.66699 17.1388 1.66699 16.6666C1.66699 16.1944 2.0281 15.8333 2.50033 15.8333H12.5003C12.9725 15.8333 13.3337 16.1944 13.3337 16.6666C13.3337 17.1388 12.9725 17.5 12.5003 17.5Z" fill="white"/>
</svg>
