<svg width="22" height="24" viewBox="0 0 22 24" fill="none" xmlns="http://www.w3.org/2000/svg">
<ellipse cx="10.7121" cy="12" rx="10.7121" ry="12" fill="#6BBC3B"/>
<g clip-path="url(#clip0_627_2222)">
<path d="M13.5792 8.8955C13.5792 7.12472 12.2932 5.68408 10.7125 5.68408C9.13173 5.68408 7.8457 7.12472 7.8457 8.8955C7.8457 10.5941 9.02967 11.9851 10.5213 12.096V18.1016C10.5213 18.22 10.607 18.3157 10.7125 18.3157C10.8179 18.3157 10.9036 18.22 10.9036 18.1016V12.096C12.3952 11.9851 13.5792 10.5941 13.5792 8.8955ZM9.75687 8.8955C9.33526 8.8955 8.9924 8.51141 8.9924 8.03912C8.9924 7.56683 9.33526 7.18274 9.75687 7.18274C10.1785 7.18274 10.5213 7.56683 10.5213 8.03912C10.5213 8.51141 10.1785 8.8955 9.75687 8.8955Z" fill="white"/>
</g>
<defs>
<clipPath id="clip0_627_2222">
<rect width="11.2759" height="12.6316" fill="white" transform="translate(5.07446 5.68408)"/>
</clipPath>
</defs>
</svg>
