<svg width="20" height="20" viewBox="0 0 20 20" fill="none" xmlns="http://www.w3.org/2000/svg">
<path d="M2.50034 18.3335H5.83367C5.94335 18.3341 6.05206 18.3131 6.15359 18.2716C6.25513 18.2302 6.34747 18.169 6.42534 18.0918L16.4253 8.09181C16.5034 8.01434 16.5654 7.92217 16.6078 7.82062C16.6501 7.71907 16.6718 7.61015 16.6718 7.50014C16.6718 7.39013 16.6501 7.28121 16.6078 7.17966C16.5654 7.07811 16.5034 6.98595 16.4253 6.90848L13.092 3.57514C13.0145 3.49704 12.9224 3.43504 12.8208 3.39273C12.7193 3.35043 12.6104 3.32864 12.5003 3.32864C12.3903 3.32864 12.2814 3.35043 12.1799 3.39273C12.0783 3.43504 11.9861 3.49704 11.9087 3.57514L1.90867 13.5751C1.83144 13.653 1.77033 13.7454 1.72886 13.8469C1.68739 13.9484 1.66637 14.0571 1.66701 14.1668V17.5001C1.66701 17.7212 1.7548 17.9331 1.91108 18.0894C2.06736 18.2457 2.27933 18.3335 2.50034 18.3335ZM3.33367 14.5085L12.5003 5.34181L14.6587 7.50014L5.49201 16.6668H3.33367V14.5085Z" fill="white"/>
<path d="M14.7585 1.90831C14.6808 1.83062 14.5885 1.76898 14.487 1.72693C14.3855 1.68488 14.2767 1.66324 14.1668 1.66324C13.9449 1.66324 13.7321 1.7514 13.5752 1.90831C13.4182 2.06523 13.3301 2.27806 13.3301 2.49998C13.3301 2.7219 13.4182 2.93473 13.5752 3.09165L16.9085 6.42498C16.986 6.50309 17.0781 6.56509 17.1797 6.60739C17.2812 6.6497 17.3901 6.67148 17.5002 6.67148C17.6102 6.67148 17.7191 6.6497 17.8206 6.60739C17.9222 6.56509 18.0143 6.50309 18.0918 6.42498C18.1699 6.34751 18.2319 6.25535 18.2742 6.1538C18.3165 6.05225 18.3383 5.94333 18.3383 5.83332C18.3383 5.72331 18.3165 5.61439 18.2742 5.51284C18.2319 5.41129 18.1699 5.31912 18.0918 5.24165L14.7585 1.90831Z" fill="white"/>
</svg>
