<svg width="24" height="24" viewBox="0 0 24 24" fill="none" xmlns="http://www.w3.org/2000/svg">
<ellipse cx="11.645" cy="12" rx="11.645" ry="12" fill="#1034A6"/>
<g clip-path="url(#clip0_627_2214)">
<path d="M14.7619 8.89559C14.7619 7.12482 13.3638 5.68417 11.6455 5.68417C9.92707 5.68417 8.52905 7.12482 8.52905 8.89559C8.52905 10.5942 9.81613 11.9852 11.4377 12.0961V18.1017C11.4377 18.2201 11.5308 18.3158 11.6455 18.3158C11.7601 18.3158 11.8532 18.2201 11.8532 18.1017V12.0961C13.4748 11.9852 14.7619 10.5942 14.7619 8.89559ZM10.6067 8.89559C10.1483 8.89559 9.77561 8.51151 9.77561 8.03921C9.77561 7.56692 10.1483 7.18284 10.6067 7.18284C11.065 7.18284 11.4377 7.56692 11.4377 8.03921C11.4377 8.51151 11.065 8.89559 10.6067 8.89559Z" fill="white"/>
</g>
<defs>
<clipPath id="clip0_627_2214">
<rect width="12.2579" height="12.6316" fill="white" transform="translate(5.5166 5.68417)"/>
</clipPath>
</defs>
</svg>
