<svg width="20" height="20" viewBox="0 0 20 20" fill="none" xmlns="http://www.w3.org/2000/svg">
<path d="M16.9531 14.2969H15.58C15.4863 14.2969 15.3984 14.3379 15.3398 14.4102C15.2031 14.5762 15.0566 14.7363 14.9023 14.8887C14.2712 15.5204 13.5237 16.0238 12.7011 16.3711C11.8489 16.7311 10.9329 16.9157 10.0078 16.9141C9.07221 16.9141 8.16596 16.7305 7.3144 16.3711C6.4918 16.0238 5.7443 15.5204 5.11323 14.8887C4.48103 14.2591 3.97693 13.5129 3.62885 12.6914C3.26752 11.8398 3.08588 10.9355 3.08588 10C3.08588 9.06445 3.26948 8.16016 3.62885 7.30859C3.97651 6.48633 4.47651 5.74609 5.11323 5.11133C5.74995 4.47656 6.49018 3.97656 7.3144 3.62891C8.16596 3.26953 9.07221 3.08594 10.0078 3.08594C10.9433 3.08594 11.8496 3.26758 12.7011 3.62891C13.5253 3.97656 14.2656 4.47656 14.9023 5.11133C15.0566 5.26562 15.2011 5.42578 15.3398 5.58984C15.3984 5.66211 15.4882 5.70312 15.58 5.70312H16.9531C17.0761 5.70312 17.1523 5.56641 17.0839 5.46289C15.5859 3.13476 12.9648 1.59375 9.98627 1.60156C5.30659 1.61328 1.55463 5.41211 1.60151 10.0859C1.64838 14.6855 5.39448 18.3984 10.0078 18.3984C12.9785 18.3984 15.5878 16.8594 17.0839 14.5371C17.1503 14.4336 17.0761 14.2969 16.9531 14.2969ZM18.6894 9.87695L15.9179 7.68945C15.8144 7.60742 15.664 7.68164 15.664 7.8125V9.29687H9.5312C9.44526 9.29687 9.37495 9.36719 9.37495 9.45312V10.5469C9.37495 10.6328 9.44526 10.7031 9.5312 10.7031H15.664V12.1875C15.664 12.3184 15.8164 12.3926 15.9179 12.3105L18.6894 10.123C18.7081 10.1084 18.7232 10.0898 18.7336 10.0684C18.744 10.0471 18.7493 10.0237 18.7493 10C18.7493 9.97628 18.744 9.95288 18.7336 9.93156C18.7232 9.91024 18.7081 9.89157 18.6894 9.87695Z" fill="#464255"/>
</svg>
