<svg width="17" height="17" viewBox="0 0 17 17" fill="none" xmlns="http://www.w3.org/2000/svg">
<rect x="16.3729" y="17" width="16" height="16.1308" rx="8" transform="rotate(-180 16.3729 17)" fill="#2ED6A3" fill-opacity="0.15"/>
<g clip-path="url(#clip0_544_3703)">
<path d="M6.39311 8.7956C6.48136 8.88455 6.60103 8.93451 6.72582 8.93451C6.8506 8.93451 6.97028 8.88455 7.05852 8.7956L7.90229 7.94494L7.90229 11.0696C7.90229 11.1954 7.95187 11.3161 8.04012 11.405C8.12837 11.494 8.24807 11.544 8.37288 11.544C8.49768 11.544 8.61738 11.494 8.70563 11.405C8.79389 11.3161 8.84346 11.1954 8.84346 11.0696L8.84347 7.94494L9.68723 8.7956C9.77598 8.88203 9.89486 8.92985 10.0182 8.92877C10.1416 8.92768 10.2597 8.87779 10.3469 8.78982C10.4342 8.70186 10.4837 8.58287 10.4847 8.45847C10.4858 8.33408 10.4384 8.21423 10.3526 8.12475L8.70558 6.46423C8.61733 6.37529 8.49766 6.32532 8.37288 6.32532C8.24809 6.32532 8.12842 6.37529 8.04017 6.46423L6.39311 8.12475C6.30489 8.21372 6.25533 8.33438 6.25533 8.46018C6.25533 8.58598 6.30489 8.70663 6.39311 8.7956Z" fill="#00A389"/>
</g>
<defs>
<clipPath id="clip0_544_3703">
<rect width="5.64706" height="5.69322" fill="white" transform="translate(11.1965 11.7812) rotate(-180)"/>
</clipPath>
</defs>
</svg>
